<?xml version="1.0" encoding="UTF-8" standalone="no"?>
<!-- Created with Inkscape (http://www.inkscape.org/) -->
<svg
    xmlns:dc="http://purl.org/dc/elements/1.1/"
    xmlns:cc="http://creativecommons.org/ns#"
    xmlns:rdf="http://www.w3.org/1999/02/22-rdf-syntax-ns#"
    xmlns:svg="http://www.w3.org/2000/svg"
    xmlns="http://www.w3.org/2000/svg"
    xmlns:sodipodi="http://sodipodi.sourceforge.net/DTD/sodipodi-0.dtd"
    xmlns:inkscape="http://www.inkscape.org/namespaces/inkscape"
   width="176.08459mm"
   height="50.359535mm"
   viewBox="0 0 176.08459 50.359535"
   version="1.1"
   id="svg3991"
   inkscape:version="0.92.4 (f8dce91, 2019-08-02)"
   sodipodi:docname="photographer-logo.svg">
    <defs
     id="defs3985" />
    <sodipodi:namedview
     id="base"
     pagecolor="#ffffff"
     bordercolor="#666666"
     borderopacity="1.0"
     inkscape:pageopacity="0.0"
     inkscape:pageshadow="2"
     inkscape:zoom="0.98994949"
     inkscape:cx="360.59776"
     inkscape:cy="202.52535"
     inkscape:document-units="mm"
     inkscape:current-layer="layer1"
     showgrid="false"
     fit-margin-top="0"
     fit-margin-left="0"
     fit-margin-right="0"
     fit-margin-bottom="-0.9"
     inkscape:pagecheckerboard="true"
     showborder="false"
     inkscape:window-width="1680"
     inkscape:window-height="948"
     inkscape:window-x="1440"
     inkscape:window-y="27"
     inkscape:window-maximized="1">
        <sodipodi:guide
       position="-26.350099,-177.0848"
       orientation="0,793.70079"
       id="guide5080"
       inkscape:locked="false" />
        <sodipodi:guide
       position="183.6499,-177.0848"
       orientation="-1122.5197,0"
       id="guide5082"
       inkscape:locked="false" />
        <sodipodi:guide
       position="183.6499,119.9152"
       orientation="0,-793.70079"
       id="guide5084"
       inkscape:locked="false" />
        <sodipodi:guide
       position="-26.350099,119.9152"
       orientation="1122.5197,0"
       id="guide5086"
       inkscape:locked="false" />
    </sodipodi:namedview>
    <metadata
     id="metadata3988">
        <rdf:RDF>
            <cc:Work
         rdf:about="">
                <dc:format>image/svg+xml</dc:format>
                <dc:type
           rdf:resource="http://purl.org/dc/dcmitype/StillImage" />
                <dc:title></dc:title>
            </cc:Work>
        </rdf:RDF>
    </metadata>
    <g
     inkscape:label="Layer 1"
     inkscape:groupmode="layer"
     id="layer1"
     transform="translate(-26.350099,-69.555666)">
        <g
       id="g5324">
            <g
         transform="matrix(0.89713451,0,0,1.3020764,-38.306972,-752.85699)"
         id="g2514"
         style="fill:#ffffff;fill-opacity:1">
                <g
           style="fill:#ffffff"
           transform="matrix(0.26458333,0,0,0.26458333,137.755,645.38)"
           id="use2512">
                    <path
             id="path4908"
             d="M 11.03125,-7.1875 C 10.921875,-7.484375 10.75,-7.828125 10.546875,-8.171875 c -0.421875,-0.75 -1.015625,-1.53125 -1.8125,-2.296875 -0.203125,-0.265625 -0.703125,-0.6875 -1.4375,-1.296875 -0.625,-0.515625 -1.09375,-0.96875 -1.40625,-1.34375 -0.8125,-0.984375 -1.234375,-1.9375 -1.234375,-2.90625 0,-0.609375 0.109375,-1.125 0.375,-1.53125 C 5.3125,-18.0625 5.75,-18.3125 6.34375,-18.3125 c 0.53125,0 0.953125,0.15625 1.234375,0.515625 0.40625,0.46875 0.671875,1.125 0.765625,1.984375 l 3.015625,-0.5625 c -0.09375,-0.890625 -0.328125,-1.703125 -0.703125,-2.40625 -0.375,-0.6875 -0.890625,-1.25 -1.5,-1.625 -0.796875,-0.5 -1.765625,-0.75 -2.890625,-0.75 -1.171875,0 -2.15625,0.296875 -2.9375,0.890625 -1.28125,0.96875 -1.921875,2.421875 -1.921875,4.3125 0,1.0625 0.234375,2.03125 0.703125,2.9375 0.421875,0.796875 1.171875,1.703125 2.21875,2.734375 C 5.5625,-9.109375 6.5,-8.25 7.140625,-7.625 7.921875,-6.78125 8.3125,-5.921875 8.3125,-5.046875 8.3125,-4.46875 8.21875,-4 8.015625,-3.65625 7.578125,-3 7.046875,-2.671875 6.34375,-2.65625 5.84375,-2.625 5.421875,-2.8125 5.046875,-3.234375 4.53125,-3.78125 4.203125,-4.671875 4.09375,-5.890625 L 1.078125,-5.65625 c 0.078125,1.09375 0.3125,2.09375 0.6875,2.953125 0.390625,0.875 0.9375,1.546875 1.609375,2.046875 0.828125,0.609375 1.84375,0.921875 3.078125,0.921875 0.65625,0 1.25,-0.078125 1.75,-0.234375 0.9375,-0.296875 1.65625,-0.78125 2.171875,-1.484375 0.78125,-1.03125 1.15625,-2.28125 1.125,-3.734375 0,-0.59375 -0.15625,-1.265625 -0.46875,-2 z m 0,0"
             style="fill:#ffffff;stroke:none"
             inkscape:connector-curvature="0" />
                </g>
            </g>
            <g
         transform="matrix(0.89713451,0,0,1.3020764,-39.433948,-752.85699)"
         id="g2518"
         style="fill:#ffffff;fill-opacity:1">
                <g
           style="fill:#ffffff"
           transform="matrix(0.26458333,0,0,0.26458333,151.5724,645.38)"
           id="use2516">
                    <path
             id="path4912"
             d="m 4.4375,0 h 3.140625 v -17.734375 h 3.34375 v -3.171875 h -9.84375 v 3.171875 H 4.4375 Z m 0,0"
             style="fill:#ffffff;stroke:none"
             inkscape:connector-curvature="0" />
                </g>
            </g>
            <g
         transform="matrix(0.89713451,0,0,1.3020764,-40.43704,-752.85699)"
         id="g2522"
         style="fill:#ffffff;fill-opacity:1">
                <g
           style="fill:#ffffff"
           transform="matrix(0.26458333,0,0,0.26458333,165.1564,645.38)"
           id="use2520">
                    <path
             id="path4916"
             d="M 9.609375,-1.203125 C 10.5625,-2.15625 11.0625,-3.328125 11.0625,-4.75 V -20.90625 H 7.765625 v 16.140625 c 0,0.515625 -0.15625,0.9375 -0.515625,1.296875 -0.34375,0.34375 -0.765625,0.515625 -1.28125,0.515625 -0.5,0 -0.921875,-0.171875 -1.265625,-0.515625 C 4.34375,-3.828125 4.15625,-4.25 4.15625,-4.765625 V -20.90625 H 1.078125 V -4.75 c 0,1.390625 0.5,2.5625 1.453125,3.53125 0.96875,0.953125 2.140625,1.453125 3.53125,1.453125 1.375,0 2.5625,-0.46875 3.546875,-1.4375 z m 0,0"
             style="fill:#ffffff;stroke:none"
             inkscape:connector-curvature="0" />
                </g>
            </g>
            <g
         transform="matrix(0.89713451,0,0,1.3020764,-41.803183,-752.85699)"
         id="g2526"
         style="fill:#ffffff;fill-opacity:1">
                <g
           style="fill:#ffffff"
           transform="matrix(0.26458333,0,0,0.26458333,179.174,645.38)"
           id="use2524">
                    <path
             id="path4920"
             d="m 10.984375,-15.953125 c 0,-1.359375 -0.46875,-2.53125 -1.421875,-3.484375 -0.96875,-1 -2.140625,-1.484375 -3.53125,-1.484375 H 1.078125 V 0 H 6.03125 c 1.359375,0 2.546875,-0.5 3.5,-1.484375 C 10.5,-2.4375 10.984375,-3.609375 10.984375,-5 Z m -6.75,-1.75 H 6.125 c 0.5,0 0.921875,0.1875 1.265625,0.53125 0.359375,0.359375 0.53125,0.78125 0.53125,1.265625 V -4.9375 c 0,0.46875 -0.171875,0.921875 -0.53125,1.28125 C 7.046875,-3.3125 6.625,-3.125 6.125,-3.125 H 4.234375 Z m 0,0"
             style="fill:#ffffff;stroke:none"
             inkscape:connector-curvature="0" />
                </g>
            </g>
            <g
         transform="matrix(0.89713451,0,0,1.3020764,-42.273226,-752.85699)"
         id="g2530"
         style="fill:#ffffff;fill-opacity:1">
                <g
           style="fill:#ffffff"
           transform="matrix(0.26458333,0,0,0.26458333,193.07539,645.38)"
           id="use2528">
                    <path
             id="path4924"
             d="M 4.234375,-20.90625 H 1.078125 V 0 h 3.15625 z m 0,0"
             style="fill:#ffffff;stroke:none"
             inkscape:connector-curvature="0" />
                </g>
            </g>
            <g
         transform="matrix(0.89713451,0,0,1.3020764,-38.306972,-752.85699)"
         id="g2534"
         style="fill:#ffffff;fill-opacity:1">
                <g
           style="fill:#ffffff"
           transform="matrix(0.26458333,0,0,0.26458333,200.23555,645.38)"
           id="use2532">
                    <path
             id="path4928"
             d="m 2.53125,-19.703125 c -0.953125,0.984375 -1.453125,2.15625 -1.453125,3.546875 V -4.75 c 0,1.390625 0.5,2.5625 1.453125,3.53125 0.96875,0.984375 2.140625,1.484375 3.53125,1.484375 1.375,0 2.5625,-0.5 3.546875,-1.46875 C 10.5625,-2.1875 11.0625,-3.359375 11.0625,-4.75 v -11.40625 c 0,-1.390625 -0.5,-2.5625 -1.453125,-3.53125 -0.96875,-0.984375 -2.171875,-1.46875 -3.546875,-1.46875 -1.359375,0 -2.546875,0.484375 -3.53125,1.453125 z m 5.234375,14.90625 c 0,0.515625 -0.15625,0.953125 -0.515625,1.296875 -0.34375,0.359375 -0.765625,0.515625 -1.28125,0.515625 -0.5,0 -0.921875,-0.15625 -1.265625,-0.515625 C 4.34375,-3.84375 4.15625,-4.28125 4.15625,-4.796875 v -11.40625 c 0,-0.515625 0.1875,-0.9375 0.546875,-1.296875 0.34375,-0.34375 0.765625,-0.515625 1.265625,-0.515625 0.515625,0 0.9375,0.171875 1.28125,0.515625 0.359375,0.359375 0.515625,0.78125 0.515625,1.296875 z m 0,0"
             style="fill:#ffffff;stroke:none"
             inkscape:connector-curvature="0" />
                </g>
            </g>
            <g
         transform="matrix(0.89713451,0,0,1.3020764,-38.306972,-752.85699)"
         id="g2542"
         style="fill:#ffffff;fill-opacity:1">
                <g
           style="fill:#ffffff"
           transform="matrix(0.26458333,0,0,0.26458333,217.00996,645.38)"
           id="use2540">
                    <path
             id="path4932"
             d="M 1.078125,-20.921875 V 0 h 3.15625 V -13.390625 L 8.578125,0 h 3.375 V -20.921875 H 8.8125 V -6.875 L 4.625,-20.921875 Z m 0,0"
             style="fill:#ffffff;stroke:none"
             inkscape:connector-curvature="0" />
                </g>
            </g>
            <g
         transform="matrix(0.89713451,0,0,1.3020764,-36.97003,-752.85699)"
         id="g2546"
         style="fill:#ffffff;fill-opacity:1">
                <g
           style="fill:#ffffff"
           transform="matrix(0.26458333,0,0,0.26458333,231.74536,645.38)"
           id="use2544">
                    <path
             id="path4936"
             d="M 8.4375,-4.8125 9.15625,0 h 3.3125 l -3.5,-20.90625 H 4.625 L 1.078125,0 H 4.375 L 5.140625,-4.8125 Z M 7.96875,-7.890625 H 5.609375 l 1.171875,-8.21875 z m 0,0"
             style="fill:#ffffff;stroke:none"
             inkscape:connector-curvature="0" />
                </g>
            </g>
            <g
         transform="matrix(0.89713451,0,0,1.3020764,-36.111446,-752.85699)"
         id="g2550"
         style="fill:#ffffff;fill-opacity:1">
                <g
           style="fill:#ffffff"
           transform="matrix(0.26458333,0,0,0.26458333,247.01398,645.38)"
           id="use2548">
                    <path
             id="path4940"
             d="M 4.234375,-13.109375 7.28125,0 H 9.8125 l 2.75,-13.15625 V 0 h 3.15625 V -20.921875 H 11.390625 L 8.546875,-5.84375 5.609375,-20.921875 H 1.078125 V 0 h 3.15625 z m 0,0"
             style="fill:#ffffff;stroke:none"
             inkscape:connector-curvature="0" />
                </g>
            </g>
            <g
         transform="matrix(0.89713451,0,0,1.3020764,-38.306972,-752.85699)"
         id="g2554"
         style="fill:#ffffff;fill-opacity:1">
                <g
           style="fill:#ffffff"
           transform="matrix(0.26458333,0,0,0.26458333,265.68689,645.38)"
           id="use2552">
                    <path
             id="path4944"
             d="m 10.046875,0 v -3.171875 h -5.8125 V -8.875 h 4.25 v -3.171875 h -4.25 V -17.75 h 5.8125 v -3.171875 H 1.078125 V 0 Z m 0,0"
             style="fill:#ffffff;stroke:none"
             inkscape:connector-curvature="0" />
                </g>
            </g>
        </g>
        <g
       id="g5209"
       style="fill:#ffffff"
       transform="matrix(1.3428767,0,0,1.8348,-29.290408,-89.544367)">
            <g
         transform="matrix(0.7904608,0,0,0.7904608,-23.581703,-422.69329)"
         id="g2558"
         style="fill:#ffffff;fill-opacity:1">
                <g
           transform="matrix(0.26458333,0,0,0.26458333,137.755,670.33197)"
           id="use2556"
           style="fill:#ffffff">
                    <path
             id="path4948"
             d="m 10.890625,-17.3125 v -1.03125 H 0.5625 v 1.03125 H 5.21875 V 0 H 6.25 v -17.3125 z m 0,0"
             style="fill:#ffffff;stroke:none"
             inkscape:connector-curvature="0" />
                </g>
            </g>
            <g
         transform="matrix(0.7904608,0,0,0.7904608,-22.140593,-422.63556)"
         id="g2562"
         style="fill:#ffffff;fill-opacity:1">
                <g
           transform="matrix(0.26458333,0,0,0.26458333,149.6095,670.33197)"
           id="use2560"
           style="fill:#ffffff">
                    <path
             id="path4952"
             d="m 4.609375,-8.0625 2.78125,-7.703125 2.828125,7.703125 z M 13.15625,0 h 1.078125 L 7.390625,-18.765625 0.5625,0 h 1.109375 l 2.5625,-7.015625 h 6.359375 z m 0,0"
             style="fill:#ffffff;stroke:none"
             inkscape:connector-curvature="0" />
                </g>
            </g>
            <g
         transform="matrix(0.7904608,0,0,0.7904608,-23.819697,-422.65244)"
         id="g2566"
         style="fill:#ffffff;fill-opacity:1">
                <g
           transform="matrix(0.26458333,0,0,0.26458333,165.17981,670.33197)"
           id="use2564"
           style="fill:#ffffff">
                    <path
             id="path4956"
             d="m 17.078125,-8.25 h -1.03125 v 5.59375 c -1.515625,1.21875 -3.25,1.828125 -5.21875,1.828125 -2.296875,0 -4.28125,-0.8125 -5.890625,-2.4375 -1.625,-1.640625 -2.453125,-3.59375 -2.453125,-5.921875 0,-2.296875 0.828125,-4.25 2.453125,-5.890625 1.609375,-1.625 3.59375,-2.4375 5.890625,-2.4375 2.109375,0 3.96875,0.703125 5.546875,2.109375 l 0.765625,-0.734375 c -1.78125,-1.609375 -3.890625,-2.4375 -6.3125,-2.4375 -2.609375,0 -4.8125,0.9375 -6.640625,2.765625 -1.84375,1.84375 -2.75,4.046875 -2.75,6.625 0,2.609375 0.90625,4.8125 2.75,6.65625 1.828125,1.828125 4.03125,2.75 6.640625,2.75 2.421875,0 4.5,-0.828125 6.25,-2.5 z m 0,0"
             style="fill:#ffffff;stroke:none"
             inkscape:connector-curvature="0" />
                </g>
            </g>
            <g
         transform="matrix(0.7904608,0,0,0.7904608,-28.720932,-422.67886)"
         id="g2570"
         style="fill:#ffffff;fill-opacity:1">
                <g
           transform="matrix(0.26458333,0,0,0.26458333,184.98351,670.33197)"
           id="use2568"
           style="fill:#ffffff">
                    <path
             id="path4960"
             d="M 9.859375,0 V -1.03125 H 2.75 v -17.3125 H 1.71875 V 0 Z m 0,0"
             style="fill:#ffffff;stroke:none"
             inkscape:connector-curvature="0" />
                </g>
            </g>
            <g
         transform="matrix(0.7904608,0,0,0.7904608,-27.537284,-422.66442)"
         id="g2574"
         style="fill:#ffffff;fill-opacity:1">
                <g
           transform="matrix(0.26458333,0,0,0.26458333,197.1017,670.33197)"
           id="use2572"
           style="fill:#ffffff">
                    <path
             id="path4964"
             d="M 1.953125,-18.34375 V 0 h 1.03125 v -18.34375 z m 0,0"
             style="fill:#ffffff;stroke:none"
             inkscape:connector-curvature="0" />
                </g>
            </g>
            <g
         transform="matrix(0.7904608,0,0,0.7904608,-21.540605,-422.64999)"
         id="g2578"
         style="fill:#ffffff;fill-opacity:1">
                <g
           transform="matrix(0.26458333,0,0,0.26458333,203.25502,670.33197)"
           id="use2576"
           style="fill:#ffffff">
                    <path
             id="path4968"
             d="M 1.71875,0 H 2.75 V -16.484375 L 12.28125,0 H 13.3125 V -18.34375 H 12.28125 V -2.015625 L 2.859375,-18.34375 H 1.71875 Z m 0,0"
             style="fill:#ffffff;stroke:none"
             inkscape:connector-curvature="0" />
                </g>
            </g>
            <g
         transform="matrix(0.7904608,0,0,0.7904608,-23.581703,-422.62112)"
         id="g2582"
         style="fill:#ffffff;fill-opacity:1">
                <g
           transform="matrix(0.26458333,0,0,0.26458333,219.51482,670.33197)"
           id="use2580"
           style="fill:#ffffff">
                    <path
             id="path4972"
             d="M 1.71875,-18.34375 V 0 h 9.171875 V -1.03125 H 2.75 v -7.640625 h 8.140625 v -1.03125 H 2.75 V -17.3125 h 8.140625 v -1.03125 z m 0,0"
             style="fill:#ffffff;stroke:none"
             inkscape:connector-curvature="0" />
                </g>
            </g>
        </g>
        <path
       inkscape:connector-curvature="0"
       style="fill:#28353a;fill-opacity:1;fill-rule:nonzero;stroke:none;stroke-width:0.79046082"
       d="m 77.609626,95.183902 c 0,14.157268 -11.474029,25.631298 -25.628217,25.631298 -14.157277,0 -25.63131,-11.47403 -25.63131,-25.631298 0,-14.154196 11.474033,-25.628236 25.63131,-25.628236 14.154188,0 25.628217,11.47404 25.628217,25.628236"
       id="path2584" />
        <path class="logo hoverable"
       inkscape:connector-curvature="0"
       style="fill:#ffffff;fill-opacity:1;fill-rule:nonzero;stroke:none;stroke-width:0.79046082"
       d="m 60.05893,80.3504 c 0.515649,0.963379 0.951026,1.982327 1.299938,3.029081 0.290248,0.876911 0.518739,1.809413 0.697825,2.856145 0.302605,1.926758 0.271722,3.445914 0.191443,4.3846 -0.01232,0.364357 -0.05557,0.691652 -0.08954,0.954103 l -0.04324,0.336572 c 0.04941,0.148109 0.108067,0.290235 0.151312,0.441525 0.250111,0.910902 0.385966,1.865005 0.385966,2.853076 0,3.686764 -1.880434,6.919638 -4.721152,8.840188 0.744146,-0.0464 1.651943,-0.15125 2.698688,-0.37978 0.47551,-0.11113 0.923235,-0.23157 1.34934,-0.36126 0.02467,-0.009 0.04941,-0.0157 0.06789,-0.0246 0.287158,-0.0865 0.555788,-0.18844 0.824418,-0.28716 0.864565,-0.34583 1.747661,-0.78119 2.612228,-1.30921 1.738397,-1.06217 3.377985,-2.522662 4.67175,-4.242538 1.296845,-1.713692 2.232435,-3.671326 2.763522,-5.591899 0.265547,-0.960287 0.426105,-1.908228 0.512566,-2.812923 0.08338,-0.901626 0.108068,-1.763099 0.03708,-2.54738 C 73.431884,85.482338 73.274429,84.602335 73.1077,83.87053 69.059685,76.336435 61.108764,71.216972 51.959793,71.216972 c -0.768848,0 -1.52843,0.04638 -2.281837,0.120548 2.12745,0.781189 4.149918,1.948358 5.866698,3.415026 1.831031,1.550033 3.390342,3.486044 4.514275,5.598061"
       id="path2586" />
        <path class="logo hoverable"
       inkscape:connector-curvature="0"
       style="fill:#ffffff;fill-opacity:1;fill-rule:nonzero;stroke:none;stroke-width:0.79046082"
       d="m 37.268341,87.097121 c 0.960287,-0.515669 1.976151,-0.954124 3.029072,-1.303042 0.87383,-0.290235 1.812501,-0.515647 2.856156,-0.697814 1.040568,-0.16357 2.071873,-0.243943 3.063036,-0.243943 0.497126,0 0.938671,0.02241 1.321549,0.05243 0.355094,0.01344 0.676216,0.05243 0.935588,0.08649 l 0.268632,0.03406 c 0.135852,-0.04011 0.265543,-0.09881 0.404492,-0.135785 0.895443,-0.24392 1.840292,-0.37361 2.812929,-0.37361 3.810268,0 7.135761,2.007019 9.028543,5.005223 -0.04015,-0.778097 -0.145128,-1.806321 -0.404496,-2.998204 -0.108068,-0.463148 -0.225398,-0.898511 -0.351999,-1.312275 -0.09881,-0.302603 -0.191443,-0.602114 -0.314951,-0.91088 -0.34891,-0.870749 -0.78428,-1.760006 -1.315374,-2.630755 -1.062181,-1.735314 -2.525766,-3.377977 -4.242552,-4.671743 -0.376703,-0.284073 -0.762671,-0.546524 -1.157901,-0.79665 -2.17068,-1.219645 -4.538972,-1.966888 -6.759054,-2.423881 -0.163659,-0.02241 -0.3273,-0.04011 -0.487863,-0.05557 -0.901621,-0.08335 -1.766188,-0.108 -2.553562,-0.03697 -1.120847,0.04011 -2.084223,0.234666 -2.862329,0.419925 -7.487765,4.063473 -12.567096,11.989687 -12.567096,21.101599 0,0.880003 0.06175,1.741476 0.154383,2.596787 0.784286,-2.250961 2.003942,-4.390762 3.54781,-6.193991 1.550044,-1.831036 3.486058,-3.393437 5.59498,-4.511176"
       id="path2588" />
        <path class="logo hoverable"
       inkscape:connector-curvature="0"
       style="fill:#ffffff;fill-opacity:1;fill-rule:nonzero;stroke:none;stroke-width:0.79046082"
       d="m 44.015047,109.88462 c -0.518739,-0.96029 -0.954112,-1.98233 -1.299938,-3.02908 -0.290248,-0.86766 -0.518739,-1.80632 -0.697829,-2.85615 -0.302597,-1.92366 -0.27172,-3.44593 -0.194536,-4.384596 0.01232,-0.314949 0.04631,-0.59593 0.07719,-0.839872 -0.06794,-0.188441 -0.148221,-0.379773 -0.20379,-0.574308 -0.277895,-0.951033 -0.426107,-1.954542 -0.426107,-2.995112 0,-3.807178 2.00703,-7.135748 5.008311,-9.028537 -0.765761,0.04324 -1.722957,0.151246 -2.837631,0.392141 -0.469337,0.108001 -0.910882,0.228482 -1.330814,0.358172 -0.172913,0.05557 -0.345828,0.114275 -0.518741,0.176117 -0.129691,0.04952 -0.262457,0.08963 -0.385968,0.138922 -0.87074,0.345826 -1.753833,0.78119 -2.6184,1.309205 -1.738396,1.065262 -3.381074,2.525758 -4.67175,4.242564 -1.299938,1.713692 -2.235523,3.677488 -2.766613,5.591877 -0.262457,0.960286 -0.423019,1.911317 -0.509476,2.812927 -0.08647,0.90471 -0.108067,1.76619 -0.04013,2.55356 0.0525,1.39565 0.339651,2.55047 0.558878,3.40888 4.143746,7.1944 11.906318,12.03599 20.802088,12.03599 0.932498,0 1.849555,-0.0679 2.751176,-0.17298 -2.244786,-0.78121 -4.381501,-2.00395 -6.184739,-3.54473 -1.83103,-1.55003 -3.393422,-3.48604 -4.511185,-5.59497"
       id="path2590" />
        <path class="logo hoverable"
       inkscape:connector-curvature="0"
       style="fill:#ffffff;fill-opacity:1;fill-rule:nonzero;stroke:none;stroke-width:0.79046082"
       d="m 75.812568,92.769282 c -0.784286,2.124362 -1.948367,4.14375 -3.411952,5.854349 -1.550046,1.834129 -3.486051,3.393439 -5.594976,4.514269 -0.960291,0.51874 -1.982335,0.95412 -3.032161,1.30302 -0.870741,0.28716 -1.803238,0.51567 -2.856157,0.69474 -1.037478,0.16671 -2.068785,0.24704 -3.063034,0.24704 -0.497129,0 -0.935589,-0.0179 -1.318465,-0.0524 -0.358181,-0.0134 -0.679306,-0.0556 -0.938673,-0.0865 -0.20379,0.071 -0.401406,0.15752 -0.611373,0.21913 -0.960287,0.28099 -1.973064,0.43537 -3.025982,0.43537 -3.68676,0 -6.916533,-1.87735 -8.840192,-4.71497 0.0525,0.70709 0.157475,1.55622 0.37053,2.52885 0.191443,0.8306 0.419929,1.5655 0.679301,2.26022 0.345826,0.8584 0.775023,1.7384 1.299937,2.59371 1.062182,1.74148 2.522684,3.38417 4.242551,4.67484 1.713694,1.29684 3.674409,2.23552 5.591892,2.76352 0.960287,0.26554 1.908225,0.42301 2.812929,0.51257 0.901617,0.0834 1.763101,0.108 2.55047,0.037 1.269061,-0.0464 2.331243,-0.28716 3.15876,-0.49711 7.240741,-4.12831 12.122451,-11.91558 12.122451,-20.85149 0,-0.824435 -0.05248,-1.630339 -0.135852,-2.43622"
       id="path2592" />
        <path
       inkscape:connector-curvature="0"
       style="fill:#ffffff;fill-opacity:1;fill-rule:nonzero;stroke:none;stroke-width:0.79046082"
       d="m 59.861314,95.183902 c 0,4.353701 -3.529281,7.879898 -7.879905,7.879898 -4.353709,0 -7.879906,-3.526197 -7.879906,-7.879898 0,-4.350632 3.526197,-7.879921 7.879906,-7.879921 4.350624,0 7.879905,3.529289 7.879905,7.879921"
       id="path2594" />
        <path
       inkscape:connector-curvature="0"
       style="fill:#28353a;fill-opacity:1;fill-rule:nonzero;stroke:none;stroke-width:0.79046082"
       d="m 51.981409,115.96745 c -11.461681,0 -20.783562,-9.32186 -20.783562,-20.783548 0,-11.455503 9.321881,-20.780481 20.783562,-20.780481 11.45859,0 20.783561,9.324978 20.783561,20.780481 0,11.461688 -9.324971,20.783548 -20.783561,20.783548"
       id="path2596" />
        <path class="logo hoverable"
       inkscape:connector-curvature="0"
       style="fill:#ffffff;fill-opacity:1;fill-rule:nonzero;stroke:none;stroke-width:0.79046082"
       d="m 51.981409,108.94286 c -7.58966,0 -13.762046,-6.16932 -13.762046,-13.758958 0,-7.586572 6.172386,-13.758963 13.762046,-13.758963 7.586573,0 13.762048,6.172391 13.762048,13.758963 0,7.589638 -6.175475,13.758958 -13.762048,13.758958"
       id="path2598" />
        <path 
       inkscape:connector-curvature="0"
       style="fill:#28353a;fill-opacity:1;fill-rule:nonzero;stroke:none;stroke-width:0.79046082"
       d="m 62.825543,95.183902 c 0,5.993298 -4.853919,10.847208 -10.844134,10.847208 -5.990209,0 -10.84722,-4.85391 -10.84722,-10.847208 0,-5.987132 4.857011,-10.844134 10.84722,-10.844134 5.990215,0 10.844134,4.857002 10.844134,10.844134"
       id="path2600" />
        <path  class="logo hoverable"
       inkscape:connector-curvature="0"
       style="fill:#ffffff;fill-opacity:1;fill-rule:nonzero;stroke:none;stroke-width:0.79046082"
       d="m 45.027826,99.046648 c -0.506389,0 -0.991166,-0.308765 -1.182607,-0.815158 -0.385963,-0.997325 -0.580494,-2.050263 -0.580494,-3.134056 0,-4.807595 3.909079,-8.716679 8.716684,-8.716679 0.700917,0 1.26906,0.571238 1.26906,1.272144 0,0.697836 -0.568143,1.265982 -1.26906,1.265982 -3.40886,0 -6.17856,2.775862 -6.17856,6.178553 0,0.765751 0.138944,1.516086 0.410669,2.223177 0.250104,0.654591 -0.0741,1.389465 -0.728708,1.639592 -0.148221,0.05871 -0.302597,0.08649 -0.456984,0.08649"
       id="path2602" />
    </g>
</svg>
